<mxfile host="Electron" agent="Mozilla/5.0 (Windows NT 10.0; Win64; x64) AppleWebKit/537.36 (KHTML, like Gecko) draw.io/27.0.5 Chrome/134.0.6998.205 Electron/35.3.0 Safari/537.36" version="27.0.5">
  <diagram name="Seite-1" id="9RO6Gj3AckQCQeCG-p3R">
    <mxGraphModel dx="1501" dy="1012" grid="1" gridSize="10" guides="1" tooltips="1" connect="1" arrows="1" fold="1" page="1" pageScale="1" pageWidth="827" pageHeight="1169" math="0" shadow="0">
      <root>
        <mxCell id="0" />
        <mxCell id="1" parent="0" />
        <mxCell id="ttuAGjpay7eY83esUB-h-126" value="&lt;p style=&quot;margin:0px;margin-top:4px;text-align:center;&quot;&gt;&lt;b&gt;Intelligent Course Material Assistent&lt;/b&gt;&lt;/p&gt;" style="verticalAlign=top;align=left;overflow=fill;html=1;whiteSpace=wrap;" vertex="1" parent="1">
          <mxGeometry x="180" y="10" width="710" height="1510" as="geometry" />
        </mxCell>
        <mxCell id="ttuAGjpay7eY83esUB-h-53" style="edgeStyle=none;rounded=0;orthogonalLoop=1;jettySize=auto;html=1;exitX=1;exitY=0.3333333333333333;exitDx=0;exitDy=0;exitPerimeter=0;entryX=0;entryY=0.5;entryDx=0;entryDy=0;endArrow=none;startFill=0;" edge="1" parent="1" source="ttuAGjpay7eY83esUB-h-1" target="ttuAGjpay7eY83esUB-h-5">
          <mxGeometry relative="1" as="geometry" />
        </mxCell>
        <mxCell id="ttuAGjpay7eY83esUB-h-55" style="edgeStyle=none;rounded=0;orthogonalLoop=1;jettySize=auto;html=1;exitX=1;exitY=0.3333333333333333;exitDx=0;exitDy=0;exitPerimeter=0;entryX=0;entryY=0.5;entryDx=0;entryDy=0;endArrow=none;startFill=0;" edge="1" parent="1" source="ttuAGjpay7eY83esUB-h-1" target="ttuAGjpay7eY83esUB-h-6">
          <mxGeometry relative="1" as="geometry" />
        </mxCell>
        <mxCell id="ttuAGjpay7eY83esUB-h-56" style="edgeStyle=none;rounded=0;orthogonalLoop=1;jettySize=auto;html=1;exitX=1;exitY=0.3333333333333333;exitDx=0;exitDy=0;exitPerimeter=0;entryX=0;entryY=0.5;entryDx=0;entryDy=0;endArrow=none;startFill=0;" edge="1" parent="1" source="ttuAGjpay7eY83esUB-h-1" target="ttuAGjpay7eY83esUB-h-7">
          <mxGeometry relative="1" as="geometry" />
        </mxCell>
        <mxCell id="ttuAGjpay7eY83esUB-h-60" style="edgeStyle=none;rounded=0;orthogonalLoop=1;jettySize=auto;html=1;exitX=1;exitY=0.3333333333333333;exitDx=0;exitDy=0;exitPerimeter=0;entryX=0;entryY=0.5;entryDx=0;entryDy=0;endArrow=none;startFill=0;" edge="1" parent="1" source="ttuAGjpay7eY83esUB-h-1" target="ttuAGjpay7eY83esUB-h-18">
          <mxGeometry relative="1" as="geometry" />
        </mxCell>
        <mxCell id="ttuAGjpay7eY83esUB-h-61" style="edgeStyle=none;rounded=0;orthogonalLoop=1;jettySize=auto;html=1;exitX=1;exitY=0.3333333333333333;exitDx=0;exitDy=0;exitPerimeter=0;entryX=0;entryY=0.5;entryDx=0;entryDy=0;endArrow=none;startFill=0;" edge="1" parent="1" source="ttuAGjpay7eY83esUB-h-1" target="ttuAGjpay7eY83esUB-h-21">
          <mxGeometry relative="1" as="geometry" />
        </mxCell>
        <mxCell id="ttuAGjpay7eY83esUB-h-62" style="edgeStyle=none;rounded=0;orthogonalLoop=1;jettySize=auto;html=1;exitX=1;exitY=0.3333333333333333;exitDx=0;exitDy=0;exitPerimeter=0;entryX=0;entryY=0.5;entryDx=0;entryDy=0;endArrow=none;startFill=0;" edge="1" parent="1" source="ttuAGjpay7eY83esUB-h-1" target="ttuAGjpay7eY83esUB-h-24">
          <mxGeometry relative="1" as="geometry" />
        </mxCell>
        <mxCell id="ttuAGjpay7eY83esUB-h-63" style="edgeStyle=none;rounded=0;orthogonalLoop=1;jettySize=auto;html=1;exitX=1;exitY=0.3333333333333333;exitDx=0;exitDy=0;exitPerimeter=0;entryX=0;entryY=0.5;entryDx=0;entryDy=0;endArrow=none;startFill=0;" edge="1" parent="1" source="ttuAGjpay7eY83esUB-h-1" target="ttuAGjpay7eY83esUB-h-25">
          <mxGeometry relative="1" as="geometry" />
        </mxCell>
        <mxCell id="ttuAGjpay7eY83esUB-h-64" style="edgeStyle=none;rounded=0;orthogonalLoop=1;jettySize=auto;html=1;exitX=1;exitY=0.3333333333333333;exitDx=0;exitDy=0;exitPerimeter=0;entryX=0;entryY=0.5;entryDx=0;entryDy=0;endArrow=none;startFill=0;" edge="1" parent="1" source="ttuAGjpay7eY83esUB-h-1" target="ttuAGjpay7eY83esUB-h-26">
          <mxGeometry relative="1" as="geometry" />
        </mxCell>
        <mxCell id="ttuAGjpay7eY83esUB-h-65" style="edgeStyle=none;rounded=0;orthogonalLoop=1;jettySize=auto;html=1;exitX=1;exitY=0.3333333333333333;exitDx=0;exitDy=0;exitPerimeter=0;entryX=0;entryY=0.5;entryDx=0;entryDy=0;endArrow=none;startFill=0;" edge="1" parent="1" source="ttuAGjpay7eY83esUB-h-1" target="ttuAGjpay7eY83esUB-h-34">
          <mxGeometry relative="1" as="geometry" />
        </mxCell>
        <mxCell id="ttuAGjpay7eY83esUB-h-66" style="edgeStyle=none;rounded=0;orthogonalLoop=1;jettySize=auto;html=1;exitX=1;exitY=0.3333333333333333;exitDx=0;exitDy=0;exitPerimeter=0;entryX=0;entryY=0.5;entryDx=0;entryDy=0;endArrow=none;startFill=0;" edge="1" parent="1" source="ttuAGjpay7eY83esUB-h-1" target="ttuAGjpay7eY83esUB-h-31">
          <mxGeometry relative="1" as="geometry" />
        </mxCell>
        <mxCell id="ttuAGjpay7eY83esUB-h-92" style="edgeStyle=none;rounded=0;orthogonalLoop=1;jettySize=auto;html=1;exitX=1;exitY=0.3333333333333333;exitDx=0;exitDy=0;exitPerimeter=0;entryX=0;entryY=0.5;entryDx=0;entryDy=0;endArrow=none;startFill=0;" edge="1" parent="1" source="ttuAGjpay7eY83esUB-h-1" target="ttuAGjpay7eY83esUB-h-100">
          <mxGeometry relative="1" as="geometry" />
        </mxCell>
        <mxCell id="ttuAGjpay7eY83esUB-h-114" style="edgeStyle=none;rounded=0;orthogonalLoop=1;jettySize=auto;html=1;exitX=1;exitY=0.3333333333333333;exitDx=0;exitDy=0;exitPerimeter=0;entryX=0;entryY=0.5;entryDx=0;entryDy=0;endArrow=none;startFill=0;" edge="1" parent="1" source="ttuAGjpay7eY83esUB-h-1" target="ttuAGjpay7eY83esUB-h-113">
          <mxGeometry relative="1" as="geometry" />
        </mxCell>
        <mxCell id="ttuAGjpay7eY83esUB-h-1" value="Student" style="shape=umlActor;verticalLabelPosition=bottom;verticalAlign=top;html=1;outlineConnect=0;" vertex="1" parent="1">
          <mxGeometry x="50" y="700" width="30" height="60" as="geometry" />
        </mxCell>
        <mxCell id="ttuAGjpay7eY83esUB-h-89" style="edgeStyle=none;rounded=0;orthogonalLoop=1;jettySize=auto;html=1;exitX=0;exitY=0.3333333333333333;exitDx=0;exitDy=0;exitPerimeter=0;entryX=1;entryY=0.5;entryDx=0;entryDy=0;endArrow=none;startFill=0;" edge="1" parent="1" source="ttuAGjpay7eY83esUB-h-2" target="ttuAGjpay7eY83esUB-h-24">
          <mxGeometry relative="1" as="geometry" />
        </mxCell>
        <mxCell id="ttuAGjpay7eY83esUB-h-2" value="GenAI Service" style="shape=umlActor;verticalLabelPosition=bottom;verticalAlign=top;html=1;outlineConnect=0;" vertex="1" parent="1">
          <mxGeometry x="980" y="1039" width="30" height="60" as="geometry" />
        </mxCell>
        <mxCell id="ttuAGjpay7eY83esUB-h-5" value="Sign up" style="ellipse;whiteSpace=wrap;html=1;" vertex="1" parent="1">
          <mxGeometry x="280" y="40" width="120" height="80" as="geometry" />
        </mxCell>
        <mxCell id="ttuAGjpay7eY83esUB-h-6" value="Log in" style="ellipse;whiteSpace=wrap;html=1;" vertex="1" parent="1">
          <mxGeometry x="280" y="130" width="120" height="80" as="geometry" />
        </mxCell>
        <mxCell id="ttuAGjpay7eY83esUB-h-7" value="Manage Profile" style="ellipse;whiteSpace=wrap;html=1;" vertex="1" parent="1">
          <mxGeometry x="280" y="220" width="120" height="80" as="geometry" />
        </mxCell>
        <mxCell id="ttuAGjpay7eY83esUB-h-15" value="Create Course Space" style="ellipse;whiteSpace=wrap;html=1;" vertex="1" parent="1">
          <mxGeometry x="520" y="160" width="120" height="80" as="geometry" />
        </mxCell>
        <mxCell id="ttuAGjpay7eY83esUB-h-75" style="edgeStyle=none;rounded=0;orthogonalLoop=1;jettySize=auto;html=1;exitX=1;exitY=0.5;exitDx=0;exitDy=0;entryX=0;entryY=0.5;entryDx=0;entryDy=0;endArrow=classic;startFill=0;dashed=1;endFill=1;" edge="1" parent="1" source="ttuAGjpay7eY83esUB-h-18" target="ttuAGjpay7eY83esUB-h-22">
          <mxGeometry relative="1" as="geometry">
            <Array as="points" />
          </mxGeometry>
        </mxCell>
        <mxCell id="ttuAGjpay7eY83esUB-h-76" value="&amp;lt;&amp;lt;include&amp;gt;&amp;gt;" style="edgeLabel;html=1;align=center;verticalAlign=middle;resizable=0;points=[];" vertex="1" connectable="0" parent="ttuAGjpay7eY83esUB-h-75">
          <mxGeometry x="-0.0021" y="-1" relative="1" as="geometry">
            <mxPoint as="offset" />
          </mxGeometry>
        </mxCell>
        <mxCell id="ttuAGjpay7eY83esUB-h-78" style="edgeStyle=none;rounded=0;orthogonalLoop=1;jettySize=auto;html=1;exitX=1;exitY=0.5;exitDx=0;exitDy=0;entryX=0;entryY=0.5;entryDx=0;entryDy=0;dashed=1;" edge="1" parent="1" source="ttuAGjpay7eY83esUB-h-18" target="ttuAGjpay7eY83esUB-h-20">
          <mxGeometry relative="1" as="geometry" />
        </mxCell>
        <mxCell id="ttuAGjpay7eY83esUB-h-79" value="&amp;lt;&amp;lt;include&amp;gt;&amp;gt;" style="edgeLabel;html=1;align=center;verticalAlign=middle;resizable=0;points=[];" vertex="1" connectable="0" parent="ttuAGjpay7eY83esUB-h-78">
          <mxGeometry x="-0.0138" y="-2" relative="1" as="geometry">
            <mxPoint as="offset" />
          </mxGeometry>
        </mxCell>
        <mxCell id="ttuAGjpay7eY83esUB-h-80" style="edgeStyle=none;rounded=0;orthogonalLoop=1;jettySize=auto;html=1;exitX=1;exitY=0.5;exitDx=0;exitDy=0;entryX=0;entryY=0.5;entryDx=0;entryDy=0;dashed=1;" edge="1" parent="1" source="ttuAGjpay7eY83esUB-h-18" target="ttuAGjpay7eY83esUB-h-19">
          <mxGeometry relative="1" as="geometry" />
        </mxCell>
        <mxCell id="ttuAGjpay7eY83esUB-h-81" value="&amp;lt;&amp;lt;include&amp;gt;&amp;gt;" style="edgeLabel;html=1;align=center;verticalAlign=middle;resizable=0;points=[];" vertex="1" connectable="0" parent="ttuAGjpay7eY83esUB-h-80">
          <mxGeometry x="-0.0098" y="-1" relative="1" as="geometry">
            <mxPoint as="offset" />
          </mxGeometry>
        </mxCell>
        <mxCell id="ttuAGjpay7eY83esUB-h-18" value="Upload Document(s)" style="ellipse;whiteSpace=wrap;html=1;" vertex="1" parent="1">
          <mxGeometry x="280" y="520" width="120" height="80" as="geometry" />
        </mxCell>
        <mxCell id="ttuAGjpay7eY83esUB-h-19" value="Index Document(s)" style="ellipse;whiteSpace=wrap;html=1;" vertex="1" parent="1">
          <mxGeometry x="520" y="620" width="120" height="80" as="geometry" />
        </mxCell>
        <mxCell id="ttuAGjpay7eY83esUB-h-20" value="Process Documents(s)" style="ellipse;whiteSpace=wrap;html=1;" vertex="1" parent="1">
          <mxGeometry x="520" y="530" width="120" height="80" as="geometry" />
        </mxCell>
        <mxCell id="ttuAGjpay7eY83esUB-h-21" value="Manage Documents" style="ellipse;whiteSpace=wrap;html=1;" vertex="1" parent="1">
          <mxGeometry x="280" y="610" width="120" height="80" as="geometry" />
        </mxCell>
        <mxCell id="ttuAGjpay7eY83esUB-h-73" style="edgeStyle=none;rounded=0;orthogonalLoop=1;jettySize=auto;html=1;exitX=1;exitY=0.5;exitDx=0;exitDy=0;entryX=0;entryY=0.5;entryDx=0;entryDy=0;endArrow=classic;startFill=0;dashed=1;endFill=1;" edge="1" parent="1" source="ttuAGjpay7eY83esUB-h-22" target="ttuAGjpay7eY83esUB-h-23">
          <mxGeometry relative="1" as="geometry" />
        </mxCell>
        <mxCell id="ttuAGjpay7eY83esUB-h-74" value="&amp;lt;&amp;lt;include&amp;gt;&amp;gt;" style="edgeLabel;html=1;align=center;verticalAlign=middle;resizable=0;points=[];" vertex="1" connectable="0" parent="ttuAGjpay7eY83esUB-h-73">
          <mxGeometry x="0.1333" relative="1" as="geometry">
            <mxPoint x="-7" y="-6" as="offset" />
          </mxGeometry>
        </mxCell>
        <mxCell id="ttuAGjpay7eY83esUB-h-22" value="P&lt;span style=&quot;background-color: transparent; color: light-dark(rgb(0, 0, 0), rgb(255, 255, 255));&quot;&gt;rogress indicator&lt;/span&gt;" style="ellipse;whiteSpace=wrap;html=1;" vertex="1" parent="1">
          <mxGeometry x="520" y="440" width="120" height="80" as="geometry" />
        </mxCell>
        <mxCell id="ttuAGjpay7eY83esUB-h-23" value="Error/Success message" style="ellipse;whiteSpace=wrap;html=1;" vertex="1" parent="1">
          <mxGeometry x="760" y="440" width="120" height="80" as="geometry" />
        </mxCell>
        <mxCell id="ttuAGjpay7eY83esUB-h-86" style="edgeStyle=none;rounded=0;orthogonalLoop=1;jettySize=auto;html=1;exitX=1;exitY=1;exitDx=0;exitDy=0;entryX=0;entryY=0.5;entryDx=0;entryDy=0;dashed=1;startArrow=classic;startFill=1;endArrow=none;" edge="1" parent="1" source="ttuAGjpay7eY83esUB-h-24" target="ttuAGjpay7eY83esUB-h-29">
          <mxGeometry relative="1" as="geometry" />
        </mxCell>
        <mxCell id="ttuAGjpay7eY83esUB-h-87" value="&amp;lt;&amp;lt;extend&amp;gt;&amp;gt;" style="edgeLabel;html=1;align=center;verticalAlign=middle;resizable=0;points=[];" vertex="1" connectable="0" parent="ttuAGjpay7eY83esUB-h-86">
          <mxGeometry x="0.05" y="2" relative="1" as="geometry">
            <mxPoint as="offset" />
          </mxGeometry>
        </mxCell>
        <mxCell id="ttuAGjpay7eY83esUB-h-94" style="edgeStyle=none;rounded=0;orthogonalLoop=1;jettySize=auto;html=1;exitX=0.5;exitY=1;exitDx=0;exitDy=0;dashed=1;" edge="1" parent="1" source="ttuAGjpay7eY83esUB-h-24" target="ttuAGjpay7eY83esUB-h-38">
          <mxGeometry relative="1" as="geometry" />
        </mxCell>
        <mxCell id="ttuAGjpay7eY83esUB-h-95" value="&amp;lt;&amp;lt;include&amp;gt;&amp;gt;" style="edgeLabel;html=1;align=center;verticalAlign=middle;resizable=0;points=[];" vertex="1" connectable="0" parent="ttuAGjpay7eY83esUB-h-94">
          <mxGeometry y="-1" relative="1" as="geometry">
            <mxPoint as="offset" />
          </mxGeometry>
        </mxCell>
        <mxCell id="ttuAGjpay7eY83esUB-h-96" style="edgeStyle=none;rounded=0;orthogonalLoop=1;jettySize=auto;html=1;exitX=0.5;exitY=1;exitDx=0;exitDy=0;entryX=0.5;entryY=0;entryDx=0;entryDy=0;dashed=1;startArrow=classic;startFill=1;endArrow=none;" edge="1" parent="1" source="ttuAGjpay7eY83esUB-h-24" target="ttuAGjpay7eY83esUB-h-36">
          <mxGeometry relative="1" as="geometry" />
        </mxCell>
        <mxCell id="ttuAGjpay7eY83esUB-h-97" value="&amp;lt;&amp;lt;extend&amp;gt;&amp;gt;" style="edgeLabel;html=1;align=center;verticalAlign=middle;resizable=0;points=[];" vertex="1" connectable="0" parent="ttuAGjpay7eY83esUB-h-96">
          <mxGeometry x="-0.0042" relative="1" as="geometry">
            <mxPoint as="offset" />
          </mxGeometry>
        </mxCell>
        <mxCell id="ttuAGjpay7eY83esUB-h-98" style="edgeStyle=none;rounded=0;orthogonalLoop=1;jettySize=auto;html=1;exitX=0.5;exitY=1;exitDx=0;exitDy=0;entryX=0.5;entryY=0;entryDx=0;entryDy=0;dashed=1;startArrow=classic;startFill=1;endArrow=none;" edge="1" parent="1" source="ttuAGjpay7eY83esUB-h-24" target="ttuAGjpay7eY83esUB-h-37">
          <mxGeometry relative="1" as="geometry" />
        </mxCell>
        <mxCell id="ttuAGjpay7eY83esUB-h-99" value="&amp;lt;&amp;lt;extend&amp;gt;&amp;gt;" style="edgeLabel;html=1;align=center;verticalAlign=middle;resizable=0;points=[];" vertex="1" connectable="0" parent="ttuAGjpay7eY83esUB-h-98">
          <mxGeometry x="0.0058" relative="1" as="geometry">
            <mxPoint as="offset" />
          </mxGeometry>
        </mxCell>
        <mxCell id="ttuAGjpay7eY83esUB-h-24" value="Flashcard generation" style="ellipse;whiteSpace=wrap;html=1;" vertex="1" parent="1">
          <mxGeometry x="354" y="1140" width="120" height="80" as="geometry" />
        </mxCell>
        <mxCell id="ttuAGjpay7eY83esUB-h-25" value="Export Flashcards" style="ellipse;whiteSpace=wrap;html=1;" vertex="1" parent="1">
          <mxGeometry x="280" y="900" width="120" height="80" as="geometry" />
        </mxCell>
        <mxCell id="ttuAGjpay7eY83esUB-h-26" value="Share Flashcards" style="ellipse;whiteSpace=wrap;html=1;" vertex="1" parent="1">
          <mxGeometry x="280" y="990" width="120" height="80" as="geometry" />
        </mxCell>
        <mxCell id="ttuAGjpay7eY83esUB-h-84" style="edgeStyle=orthogonalEdgeStyle;rounded=0;orthogonalLoop=1;jettySize=auto;html=1;exitX=0;exitY=0.5;exitDx=0;exitDy=0;endArrow=block;endFill=0;strokeColor=default;" edge="1" parent="1" source="ttuAGjpay7eY83esUB-h-27" target="ttuAGjpay7eY83esUB-h-24">
          <mxGeometry relative="1" as="geometry">
            <mxPoint x="340" y="1100" as="targetPoint" />
          </mxGeometry>
        </mxCell>
        <mxCell id="ttuAGjpay7eY83esUB-h-27" value="Auto-generate Flashcards" style="ellipse;whiteSpace=wrap;html=1;" vertex="1" parent="1">
          <mxGeometry x="520" y="1010" width="120" height="80" as="geometry" />
        </mxCell>
        <mxCell id="ttuAGjpay7eY83esUB-h-101" style="edgeStyle=orthogonalEdgeStyle;rounded=0;orthogonalLoop=1;jettySize=auto;html=1;exitX=0;exitY=0.5;exitDx=0;exitDy=0;endArrow=block;endFill=0;entryX=0.5;entryY=0;entryDx=0;entryDy=0;" edge="1" parent="1" source="ttuAGjpay7eY83esUB-h-28" target="ttuAGjpay7eY83esUB-h-24">
          <mxGeometry relative="1" as="geometry">
            <mxPoint x="220" y="1100" as="targetPoint" />
          </mxGeometry>
        </mxCell>
        <mxCell id="ttuAGjpay7eY83esUB-h-28" value="Generate Flashcards by topic or keyword" style="ellipse;whiteSpace=wrap;html=1;" vertex="1" parent="1">
          <mxGeometry x="520" y="920" width="120" height="80" as="geometry" />
        </mxCell>
        <mxCell id="ttuAGjpay7eY83esUB-h-29" value="Set generation filters" style="ellipse;whiteSpace=wrap;html=1;" vertex="1" parent="1">
          <mxGeometry x="560" y="1169" width="120" height="80" as="geometry" />
        </mxCell>
        <mxCell id="ttuAGjpay7eY83esUB-h-71" style="edgeStyle=none;rounded=0;orthogonalLoop=1;jettySize=auto;html=1;exitX=1;exitY=0.5;exitDx=0;exitDy=0;entryX=0;entryY=0.5;entryDx=0;entryDy=0;endArrow=classic;startFill=0;dashed=1;endFill=1;" edge="1" parent="1" source="ttuAGjpay7eY83esUB-h-31" target="ttuAGjpay7eY83esUB-h-33">
          <mxGeometry relative="1" as="geometry" />
        </mxCell>
        <mxCell id="ttuAGjpay7eY83esUB-h-72" value="&amp;lt;&amp;lt;include&amp;gt;&amp;gt;" style="edgeLabel;html=1;align=center;verticalAlign=middle;resizable=0;points=[];" vertex="1" connectable="0" parent="ttuAGjpay7eY83esUB-h-71">
          <mxGeometry y="2" relative="1" as="geometry">
            <mxPoint as="offset" />
          </mxGeometry>
        </mxCell>
        <mxCell id="ttuAGjpay7eY83esUB-h-31" value="Ask Question about Course (Q&amp;amp;A)" style="ellipse;whiteSpace=wrap;html=1;" vertex="1" parent="1">
          <mxGeometry x="280" y="710" width="120" height="80" as="geometry" />
        </mxCell>
        <mxCell id="ttuAGjpay7eY83esUB-h-33" value="Generate Answer with Citation" style="ellipse;whiteSpace=wrap;html=1;" vertex="1" parent="1">
          <mxGeometry x="520" y="710" width="120" height="80" as="geometry" />
        </mxCell>
        <mxCell id="ttuAGjpay7eY83esUB-h-68" value="" style="edgeStyle=none;rounded=0;orthogonalLoop=1;jettySize=auto;html=1;endArrow=none;startFill=1;dashed=1;endFill=1;startArrow=classic;" edge="1" parent="1" source="ttuAGjpay7eY83esUB-h-34" target="ttuAGjpay7eY83esUB-h-67">
          <mxGeometry relative="1" as="geometry" />
        </mxCell>
        <mxCell id="ttuAGjpay7eY83esUB-h-69" value="&amp;lt;&amp;lt;extend&amp;gt;&amp;gt;" style="edgeLabel;html=1;align=center;verticalAlign=middle;resizable=0;points=[];" vertex="1" connectable="0" parent="ttuAGjpay7eY83esUB-h-68">
          <mxGeometry x="-0.075" y="3" relative="1" as="geometry">
            <mxPoint as="offset" />
          </mxGeometry>
        </mxCell>
        <mxCell id="ttuAGjpay7eY83esUB-h-34" value="Review Flashcards" style="ellipse;whiteSpace=wrap;html=1;" vertex="1" parent="1">
          <mxGeometry x="280" y="810" width="120" height="80" as="geometry" />
        </mxCell>
        <mxCell id="ttuAGjpay7eY83esUB-h-36" value="Edit Flashcards" style="ellipse;whiteSpace=wrap;html=1;" vertex="1" parent="1">
          <mxGeometry x="420" y="1290" width="120" height="80" as="geometry" />
        </mxCell>
        <mxCell id="ttuAGjpay7eY83esUB-h-37" value="Delete Flashcards" style="ellipse;whiteSpace=wrap;html=1;" vertex="1" parent="1">
          <mxGeometry x="280" y="1290" width="120" height="80" as="geometry" />
        </mxCell>
        <mxCell id="ttuAGjpay7eY83esUB-h-38" value="Save Flashcards" style="ellipse;whiteSpace=wrap;html=1;" vertex="1" parent="1">
          <mxGeometry x="560" y="1290" width="120" height="80" as="geometry" />
        </mxCell>
        <mxCell id="ttuAGjpay7eY83esUB-h-47" value="Cloud-based model" style="shape=umlActor;verticalLabelPosition=bottom;verticalAlign=top;html=1;outlineConnect=0;" vertex="1" parent="1">
          <mxGeometry x="1100" y="969" width="30" height="60" as="geometry" />
        </mxCell>
        <mxCell id="ttuAGjpay7eY83esUB-h-112" style="edgeStyle=orthogonalEdgeStyle;rounded=0;orthogonalLoop=1;jettySize=auto;html=1;endArrow=block;endFill=0;" edge="1" parent="1" source="ttuAGjpay7eY83esUB-h-48">
          <mxGeometry relative="1" as="geometry">
            <mxPoint x="1010" y="1060" as="targetPoint" />
            <Array as="points">
              <mxPoint x="1060" y="1139" />
              <mxPoint x="1060" y="1060" />
            </Array>
          </mxGeometry>
        </mxCell>
        <mxCell id="ttuAGjpay7eY83esUB-h-48" value="Local model" style="shape=umlActor;verticalLabelPosition=bottom;verticalAlign=top;html=1;outlineConnect=0;" vertex="1" parent="1">
          <mxGeometry x="1100" y="1109" width="30" height="60" as="geometry" />
        </mxCell>
        <mxCell id="ttuAGjpay7eY83esUB-h-67" value="Quiz mode selection" style="ellipse;whiteSpace=wrap;html=1;" vertex="1" parent="1">
          <mxGeometry x="520" y="810" width="120" height="80" as="geometry" />
        </mxCell>
        <mxCell id="ttuAGjpay7eY83esUB-h-70" style="edgeStyle=none;rounded=0;orthogonalLoop=1;jettySize=auto;html=1;exitX=1;exitY=0.5;exitDx=0;exitDy=0;entryX=0;entryY=0.3333333333333333;entryDx=0;entryDy=0;entryPerimeter=0;endArrow=none;startFill=0;" edge="1" parent="1" source="ttuAGjpay7eY83esUB-h-33" target="ttuAGjpay7eY83esUB-h-2">
          <mxGeometry relative="1" as="geometry" />
        </mxCell>
        <mxCell id="ttuAGjpay7eY83esUB-h-16" value="Delete Course Space" style="ellipse;whiteSpace=wrap;html=1;" vertex="1" parent="1">
          <mxGeometry x="520" y="250" width="120" height="80" as="geometry" />
        </mxCell>
        <mxCell id="ttuAGjpay7eY83esUB-h-102" style="edgeStyle=none;rounded=0;orthogonalLoop=1;jettySize=auto;html=1;exitX=0.5;exitY=0;exitDx=0;exitDy=0;entryX=0.5;entryY=1;entryDx=0;entryDy=0;dashed=1;endArrow=none;startFill=1;startArrow=classic;" edge="1" parent="1" source="ttuAGjpay7eY83esUB-h-100" target="ttuAGjpay7eY83esUB-h-37">
          <mxGeometry relative="1" as="geometry" />
        </mxCell>
        <mxCell id="ttuAGjpay7eY83esUB-h-105" value="&amp;lt;&amp;lt;extend&amp;gt;&amp;gt;" style="edgeLabel;html=1;align=center;verticalAlign=middle;resizable=0;points=[];" vertex="1" connectable="0" parent="ttuAGjpay7eY83esUB-h-102">
          <mxGeometry y="1" relative="1" as="geometry">
            <mxPoint as="offset" />
          </mxGeometry>
        </mxCell>
        <mxCell id="ttuAGjpay7eY83esUB-h-103" style="edgeStyle=none;rounded=0;orthogonalLoop=1;jettySize=auto;html=1;exitX=0.5;exitY=0;exitDx=0;exitDy=0;entryX=0.5;entryY=1;entryDx=0;entryDy=0;dashed=1;startArrow=classic;startFill=1;endArrow=none;" edge="1" parent="1" source="ttuAGjpay7eY83esUB-h-100" target="ttuAGjpay7eY83esUB-h-36">
          <mxGeometry relative="1" as="geometry" />
        </mxCell>
        <mxCell id="ttuAGjpay7eY83esUB-h-106" value="&amp;lt;&amp;lt;extend&amp;gt;&amp;gt;" style="edgeLabel;html=1;align=center;verticalAlign=middle;resizable=0;points=[];" vertex="1" connectable="0" parent="ttuAGjpay7eY83esUB-h-103">
          <mxGeometry x="0.0014" y="-3" relative="1" as="geometry">
            <mxPoint x="6" y="-13" as="offset" />
          </mxGeometry>
        </mxCell>
        <mxCell id="ttuAGjpay7eY83esUB-h-104" style="edgeStyle=none;rounded=0;orthogonalLoop=1;jettySize=auto;html=1;exitX=0.5;exitY=0;exitDx=0;exitDy=0;entryX=0.5;entryY=1;entryDx=0;entryDy=0;dashed=1;" edge="1" parent="1" source="ttuAGjpay7eY83esUB-h-100" target="ttuAGjpay7eY83esUB-h-38">
          <mxGeometry relative="1" as="geometry" />
        </mxCell>
        <mxCell id="ttuAGjpay7eY83esUB-h-108" value="&amp;lt;&amp;lt;include&amp;gt;&amp;gt;" style="edgeLabel;html=1;align=center;verticalAlign=middle;resizable=0;points=[];" vertex="1" connectable="0" parent="ttuAGjpay7eY83esUB-h-104">
          <mxGeometry x="-0.0011" y="-1" relative="1" as="geometry">
            <mxPoint as="offset" />
          </mxGeometry>
        </mxCell>
        <mxCell id="ttuAGjpay7eY83esUB-h-100" value="Manage Flashcards" style="ellipse;whiteSpace=wrap;html=1;" vertex="1" parent="1">
          <mxGeometry x="280" y="1430" width="120" height="80" as="geometry" />
        </mxCell>
        <mxCell id="ttuAGjpay7eY83esUB-h-111" style="edgeStyle=orthogonalEdgeStyle;rounded=0;orthogonalLoop=1;jettySize=auto;html=1;endArrow=block;endFill=0;" edge="1" parent="1" source="ttuAGjpay7eY83esUB-h-47">
          <mxGeometry relative="1" as="geometry">
            <mxPoint x="1010" y="1060" as="targetPoint" />
            <Array as="points">
              <mxPoint x="1060" y="999" />
              <mxPoint x="1060" y="1060" />
            </Array>
          </mxGeometry>
        </mxCell>
        <mxCell id="ttuAGjpay7eY83esUB-h-115" style="edgeStyle=none;rounded=0;orthogonalLoop=1;jettySize=auto;html=1;exitX=1;exitY=0.5;exitDx=0;exitDy=0;entryX=0;entryY=0.5;entryDx=0;entryDy=0;dashed=1;startArrow=classic;startFill=1;endArrow=none;" edge="1" parent="1" source="ttuAGjpay7eY83esUB-h-113" target="ttuAGjpay7eY83esUB-h-15">
          <mxGeometry relative="1" as="geometry" />
        </mxCell>
        <mxCell id="ttuAGjpay7eY83esUB-h-123" value="&amp;lt;&amp;lt;extend&amp;gt;&amp;gt;" style="edgeLabel;html=1;align=center;verticalAlign=middle;resizable=0;points=[];" vertex="1" connectable="0" parent="ttuAGjpay7eY83esUB-h-115">
          <mxGeometry x="0.0242" y="1" relative="1" as="geometry">
            <mxPoint as="offset" />
          </mxGeometry>
        </mxCell>
        <mxCell id="ttuAGjpay7eY83esUB-h-116" style="edgeStyle=none;rounded=0;orthogonalLoop=1;jettySize=auto;html=1;exitX=1;exitY=0.5;exitDx=0;exitDy=0;entryX=0;entryY=0.5;entryDx=0;entryDy=0;dashed=1;startArrow=classic;startFill=1;endArrow=none;" edge="1" parent="1" source="ttuAGjpay7eY83esUB-h-113" target="ttuAGjpay7eY83esUB-h-16">
          <mxGeometry relative="1" as="geometry" />
        </mxCell>
        <mxCell id="ttuAGjpay7eY83esUB-h-122" value="&amp;lt;&amp;lt;extend&amp;gt;&amp;gt;" style="edgeLabel;html=1;align=center;verticalAlign=middle;resizable=0;points=[];" vertex="1" connectable="0" parent="ttuAGjpay7eY83esUB-h-116">
          <mxGeometry y="1" relative="1" as="geometry">
            <mxPoint as="offset" />
          </mxGeometry>
        </mxCell>
        <mxCell id="ttuAGjpay7eY83esUB-h-120" style="edgeStyle=none;rounded=0;orthogonalLoop=1;jettySize=auto;html=1;exitX=1;exitY=0.5;exitDx=0;exitDy=0;entryX=0;entryY=0.5;entryDx=0;entryDy=0;dashed=1;startArrow=classic;startFill=1;endArrow=none;" edge="1" parent="1" source="ttuAGjpay7eY83esUB-h-113" target="ttuAGjpay7eY83esUB-h-119">
          <mxGeometry relative="1" as="geometry" />
        </mxCell>
        <mxCell id="ttuAGjpay7eY83esUB-h-121" value="&amp;lt;&amp;lt;extend&amp;gt;&amp;gt;" style="edgeLabel;html=1;align=center;verticalAlign=middle;resizable=0;points=[];" vertex="1" connectable="0" parent="ttuAGjpay7eY83esUB-h-120">
          <mxGeometry x="0.0279" relative="1" as="geometry">
            <mxPoint as="offset" />
          </mxGeometry>
        </mxCell>
        <mxCell id="ttuAGjpay7eY83esUB-h-113" value="Manage Course Space" style="ellipse;whiteSpace=wrap;html=1;" vertex="1" parent="1">
          <mxGeometry x="280" y="360" width="120" height="80" as="geometry" />
        </mxCell>
        <mxCell id="ttuAGjpay7eY83esUB-h-119" value="Edit Course Space" style="ellipse;whiteSpace=wrap;html=1;" vertex="1" parent="1">
          <mxGeometry x="520" y="340" width="120" height="80" as="geometry" />
        </mxCell>
      </root>
    </mxGraphModel>
  </diagram>
</mxfile>
